<svg xmlns="http://www.w3.org/2000/svg" viewBox="0 0 470 250" width="470" height="250" font-family="'JetBrains Mono','Fira Code','SF Mono',Consolas,'DejaVu Sans Mono',monospace">
<defs><filter id="glow" x="-20%" y="-60%" width="140%" height="220%"><feGaussianBlur stdDeviation="2.4" result="b"/><feMerge><feMergeNode in="b"/><feMergeNode in="SourceGraphic"/></feMerge></filter><pattern id="hz" width="10" height="10" patternUnits="userSpaceOnUse" patternTransform="rotate(45)"><rect width="5" height="10" fill="#00f0ff"/></pattern><pattern id="s" width="4" height="4" patternUnits="userSpaceOnUse"><rect width="4" height="1" fill="#fff" opacity=".035"/></pattern></defs>
<polygon points="22.0,2.0 468.0,2.0 468.0,2.0 468.0,228.0 448.0,248.0 2.0,248.0 2.0,248.0 2.0,22.0" fill="#130b1f" stroke="#00f0ff" stroke-width="2"><animate attributeName="stroke-opacity" values="1;.45;1" dur="3.2s" repeatCount="indefinite"/></polygon>
<polygon points="22.0,2.0 468.0,2.0 468.0,2.0 468.0,228.0 448.0,248.0 2.0,248.0 2.0,248.0 2.0,22.0" fill="url(#s)"/>
<polygon points="24.0,14.0 78.0,14.0 78.0,14.0 78.0,28.0 70.0,36.0 24.0,36.0 24.0,36.0 24.0,14.0" fill="#00f0ff"/>
<text x="34" y="30" font-size="12" fill="#000" text-anchor="start" font-weight="800" textLength="36.0" lengthAdjust="spacing" xml:space="preserve" >ID:04</text>
<text x="24" y="66" font-size="20" fill="#fff" text-anchor="start" font-weight="800" textLength="108.0" lengthAdjust="spacing" xml:space="preserve" filter="url(#glow)">CINEVAULT</text>
<text x="24" y="86" font-size="10.5" fill="#00f0ff" text-anchor="start" textLength="226.3" lengthAdjust="spacing" xml:space="preserve" >A MOVIE-FOCUSED WEB APPLICATION</text>
<text x="24" y="114" font-size="12.5" fill="#b9b1cc" text-anchor="start" textLength="420.0" lengthAdjust="spacing" xml:space="preserve" >A web project exploring frontend development, API-driven</text>
<text x="24" y="132" font-size="12.5" fill="#b9b1cc" text-anchor="start" textLength="397.5" lengthAdjust="spacing" xml:space="preserve" >data and building a polished user-facing application.</text>
<polygon points="29.0,186.0 106.0,186.0 106.0,186.0 106.0,203.0 101.0,208.0 24.0,208.0 24.0,208.0 24.0,191.0" fill="none" stroke="#00f0ff" opacity=".7"/>
<text x="65.0" y="201" font-size="10" fill="#00f0ff" text-anchor="middle" textLength="60.0" lengthAdjust="spacing" xml:space="preserve" >JAVASCRIPT</text>
<polygon points="119.0,186.0 228.0,186.0 228.0,186.0 228.0,203.0 223.0,208.0 114.0,208.0 114.0,208.0 114.0,191.0" fill="none" stroke="#00f0ff" opacity=".7"/>
<text x="171.0" y="201" font-size="10" fill="#00f0ff" text-anchor="middle" textLength="90.0" lengthAdjust="spacing" xml:space="preserve" >WEB DEVELOPMENT</text>
<polygon points="241.0,186.0 279.6,186.0 279.6,186.0 279.6,203.0 274.6,208.0 236.0,208.0 236.0,208.0 236.0,191.0" fill="none" stroke="#00f0ff" opacity=".7"/>
<text x="257.8" y="201" font-size="10" fill="#00f0ff" text-anchor="middle" textLength="24.0" lengthAdjust="spacing" xml:space="preserve" >APIs</text>
<rect x="24" y="226" width="64" height="6" fill="url(#hz)"/>
<text x="442" y="236" font-size="11" fill="#00f0ff" text-anchor="end" textLength="106.4" lengthAdjust="spacing" xml:space="preserve" >ACCESS REPO &gt;&gt;</text>
</svg>